<svg xmlns="http://www.w3.org/2000/svg" viewBox="15.97 8.22 190.00 185.20" width="1200" height="1170">
  <path fill="#f7f1e6" stroke="#c6a15a" stroke-width="2.4" stroke-linejoin="round" d="M185.08,61.18 185.79,61.95 186.35,62.18 186.52,62.48 186.79,62.57 187.13,62.50 187.65,62.15 188.41,62.25 189.04,62.12 190.30,62.31 191.00,62.67 191.02,64.82 191.04,66.97 191.06,69.11 191.08,71.26 191.08,73.27 191.07,75.27 191.07,77.28 191.07,79.28 191.06,81.29 191.06,83.29 191.06,85.30 191.05,87.30 192.93,89.24 193.73,90.57 193.99,91.24 194.07,93.56 194.26,94.12 195.20,94.99 195.22,95.56 196.20,97.23 196.17,98.02 197.10,99.80 197.63,100.27 197.72,101.48 198.00,102.39 197.57,103.05 197.75,103.95 197.48,104.79 197.34,105.92 196.72,107.65 196.18,108.50 195.43,110.12 195.50,111.47 195.07,112.94 195.02,113.50 195.42,114.48 195.56,117.18 195.34,117.74 194.43,119.32 193.79,119.28 192.37,121.89 193.18,123.36 193.12,123.88 190.29,124.18 183.86,127.13 181.35,128.71 181.48,128.18 184.51,126.12 183.44,125.81 181.71,126.32 181.10,126.12 181.83,124.42 181.59,122.92 180.36,122.88 179.58,124.08 179.04,124.03 178.33,123.51 177.78,123.68 178.19,126.39 178.96,127.51 179.60,128.93 177.84,130.69 176.21,132.14 176.03,133.55 174.39,135.37 172.84,136.41 169.21,138.85 168.17,139.37 166.53,140.50 164.27,141.34 162.10,142.69 161.36,142.89 162.75,141.75 164.39,140.63 162.98,140.78 160.81,140.26 159.48,140.23 159.47,140.64 158.46,141.22 157.42,140.37 156.96,139.80 156.74,139.30 156.30,139.18 155.87,139.41 157.43,142.90 158.10,143.05 158.84,143.39 157.92,144.21 156.93,144.82 155.38,145.23 154.06,143.96 153.78,145.56 153.61,147.15 153.17,147.56 152.46,148.14 152.08,147.70 151.90,147.09 151.45,147.64 150.78,148.05 149.69,148.13 148.87,148.35 148.89,149.01 149.08,149.68 150.53,149.15 150.00,150.86 148.67,152.55 147.58,152.94 145.92,152.70 145.51,152.87 145.15,153.22 147.08,155.85 145.84,159.83 145.04,161.28 144.49,161.46 143.90,161.50 141.75,160.22 140.58,159.23 141.61,161.93 144.42,162.72 144.56,163.74 144.55,164.61 144.00,165.63 143.48,166.99 143.86,167.94 144.30,170.28 144.68,171.36 145.10,174.62 145.54,176.03 148.10,181.24 148.96,181.28 149.09,181.84 149.01,182.92 147.18,183.24 146.41,183.72 146.26,184.14 146.14,184.36 145.90,184.34 145.03,184.04 143.04,182.56 140.14,181.65 136.32,181.29 133.72,180.55 132.32,179.42 130.86,178.76 129.34,178.55 128.08,177.93 127.08,176.92 125.61,176.28 123.69,175.99 122.44,175.23 121.56,173.38 121.56,173.35 120.78,170.25 119.80,168.30 117.89,165.89 117.71,165.58 117.71,165.58 117.69,165.18 117.93,163.78 117.73,162.77 117.12,161.95 116.99,161.09 117.31,160.17 117.33,159.07 117.05,157.79 115.83,156.40 113.68,154.92 111.84,152.74 110.33,149.88 108.83,147.90 107.35,146.80 106.34,145.45 105.79,143.86 105.63,142.93 105.85,142.68 104.94,140.91 102.90,137.63 101.73,135.23 101.42,133.71 100.12,131.91 97.83,129.82 96.58,128.46 96.27,127.51 96.27,127.51 92.69,124.76 91.65,123.04 90.83,122.50 89.90,122.56 89.42,122.39 89.40,122.00 89.09,121.98 88.51,122.34 86.61,122.41 83.37,122.20 81.04,121.73 79.61,121.00 78.60,121.10 78.02,122.03 76.80,122.62 74.92,122.89 73.30,124.60 71.95,127.77 71.36,129.81 71.52,130.71 71.16,131.37 70.29,131.79 69.39,132.71 68.48,134.14 67.42,134.83 66.21,134.78 63.97,133.68 60.70,131.52 58.14,130.19 56.29,129.68 54.65,128.69 53.23,127.20 51.92,126.21 50.72,125.71 49.32,124.07 47.72,121.27 46.92,119.11 46.92,116.84 44.83,111.87 43.72,109.72 42.89,108.73 41.27,107.55 38.87,106.18 35.64,103.43 31.59,99.31 28.73,96.83 27.05,95.98 25.59,94.50 24.35,92.37 23.15,91.02 23.02,90.96 21.38,90.15 21.38,90.15 20.00,87.27 20.08,87.27 23.13,87.27 26.17,87.26 29.22,87.26 32.26,87.26 35.31,87.26 38.36,87.26 41.40,87.26 44.45,87.26 47.49,87.25 50.54,87.25 53.58,87.25 56.63,87.25 59.67,87.25 62.72,87.25 65.77,87.25 68.81,87.24 68.83,82.79 68.85,78.34 68.87,73.89 68.89,69.44 68.91,64.98 68.93,60.53 68.95,56.08 68.97,51.63 68.99,47.18 69.01,42.72 69.03,38.27 69.05,33.82 69.07,29.37 69.09,24.91 69.11,20.46 69.13,16.01 69.70,16.00 72.24,16.00 74.77,16.00 77.31,16.00 79.85,16.00 82.39,16.00 84.93,16.00 87.47,16.00 90.01,16.00 92.54,16.00 95.08,16.00 97.62,16.00 100.16,16.00 102.70,16.00 105.24,16.00 107.78,16.00 110.31,16.01 110.32,17.90 110.32,19.80 110.32,21.69 110.32,23.58 110.33,25.48 110.33,27.37 110.33,29.27 110.33,31.16 110.34,33.06 110.34,34.95 110.34,36.85 110.35,38.74 110.35,40.64 110.35,42.53 110.35,44.43 110.36,46.32 111.15,46.49 112.15,47.01 114.61,49.03 115.33,49.46 116.63,49.20 118.04,49.45 118.41,49.40 118.68,48.54 118.82,48.36 119.01,48.39 120.23,49.16 120.47,49.47 121.19,50.57 121.37,51.88 121.76,52.08 122.51,52.23 124.32,52.31 126.62,53.16 127.55,53.29 129.20,53.06 130.75,54.21 131.30,54.38 131.75,54.22 132.62,53.37 134.54,53.47 136.11,53.32 136.23,54.28 136.50,54.97 137.80,55.71 138.11,56.07 138.17,57.24 138.51,57.54 139.03,57.65 139.58,57.58 140.22,57.21 141.62,56.05 142.05,55.77 142.31,55.75 142.57,55.81 142.78,56.06 143.25,56.94 144.47,57.42 145.17,58.17 145.59,58.28 146.07,58.14 146.82,57.68 147.41,57.71 148.08,57.24 148.35,57.35 148.47,57.67 148.27,58.65 148.39,59.02 148.66,59.46 149.03,59.77 149.38,59.81 149.65,59.57 150.16,58.33 150.13,57.88 150.70,57.73 150.96,57.49 151.30,56.59 151.89,56.35 152.20,56.40 152.48,56.65 153.06,57.46 154.43,57.92 154.78,57.94 155.14,57.77 155.76,57.10 156.07,57.02 156.33,57.11 156.48,57.21 156.53,58.00 157.94,58.90 158.97,59.17 159.98,60.08 160.27,60.19 160.77,59.45 161.73,59.19 162.65,58.43 165.33,57.47 166.40,57.78 167.47,57.76 167.75,57.33 169.65,56.72 170.04,56.48 170.56,56.78 170.75,57.23 171.00,57.41 172.30,57.63 173.03,57.60 174.35,57.03 174.87,56.30 175.17,56.26 176.11,56.62 178.60,58.09 179.86,59.28 181.27,59.86 182.03,60.38 185.08,61.18Z M177.55,132.49 176.88,132.64 179.83,130.21 180.45,129.40 181.24,129.43 179.92,130.80 177.55,132.49Z M154.19,148.22 153.69,148.29 154.30,147.43 155.31,147.00 157.51,145.36 158.40,145.24 158.87,144.68 159.07,144.59 158.94,145.29 157.17,146.27 154.19,148.22Z M150.80,152.20 150.51,152.23 151.16,150.94 151.28,150.42 152.36,148.78 152.93,148.53 153.16,149.23 152.06,150.38 150.80,152.20Z M146.20,161.72 145.78,162.63 145.90,161.28 147.00,158.19 149.23,154.14 150.17,153.46 147.59,157.90 146.20,161.72Z M148.68,179.79 148.49,180.52 147.37,177.09 145.55,169.32 145.48,164.89 145.76,163.36 146.23,169.62 148.25,177.57 148.68,179.79Z"/>
  <g transform="translate(141.80 110.91)">
    <path fill="#c6a15a" d="M0,0 C-4.6,-14 -13.6,-24 -13.6,-36.2 C-13.6,-45.6 -8,-52 0,-52 C8,-52 13.6,-45.6 13.6,-36.2 C13.6,-24 4.6,-14 0,0 Z"/>
    <circle cx="0" cy="-36.2" r="5" fill="#1e4636"/>
  </g>
</svg>
