<?xml version="1.0" encoding="UTF-8"?>
<svg xmlns="http://www.w3.org/2000/svg" viewBox="0 0 800 860" width="800" height="860" role="img">
<title>Sammamish Christmas lights</title>
<desc>Map data OpenStreetMap contributors</desc>
<rect width="800" height="860" fill="#efe6d4"/>
<clipPath id="frame"><rect width="800" height="860"/></clipPath>
<g clip-path="url(#frame)" fill="none" stroke-linecap="round" stroke-linejoin="round">
<path d="M-96 540 L-61 572 L-38 602 L-18 667 L-6 672 L9 689 L11 706 L-1 714 L-22 705 L-32 690 L-40 687 L-43 705 L-37 723 L-21 734 L19 778 L51 793 L87 804 L129 834 L179 903 L253 978 L288 1023" fill="none" stroke="#a9c0b8" stroke-width="1.6"/>
<path d="M562 814 L605 811 L658 816" stroke="#d4c6b0" stroke-width="1.15"/>
<path d="M475 769 L483 772 L520 774 L523 771 L520 767 L517 772" stroke="#d4c6b0" stroke-width="1.15"/>
<path d="M81 156 L28 99 L-28 18 L-50 1 L-72 -1" stroke="#d4c6b0" stroke-width="1.15"/>
<path d="M401 468 L411 453 L440 433 L450 418 L452 390 L444 374" stroke="#d4c6b0" stroke-width="1.15"/>
<path d="M493 553 L508 539 L534 490 L590 421" stroke="#d4c6b0" stroke-width="1.15"/>
<path d="M486 730 L477 766 L466 781 L466 797 L474 813 L471 830" stroke="#d4c6b0" stroke-width="1.15"/>
<path d="M493 642 L479 654 L466 659 L456 657 L444 648" stroke="#d4c6b0" stroke-width="1.15"/>
<path d="M640 649 L703 641 L719 629" stroke="#d4c6b0" stroke-width="1.15"/>
<path d="M750 460 L758 439 L790 411 L806 390 L810 379" stroke="#d4c6b0" stroke-width="1.15"/>
<path d="M682 456 L730 456 L760 465 L770 478 L781 520 L795 532 L814 540 L825 540 L837 532 L849 483" stroke="#d4c6b0" stroke-width="1.15"/>
<path d="M401 468 L384 466 L341 475 L312 459 L293 436 L281 428" stroke="#d4c6b0" stroke-width="1.15"/>
<path d="M553 465 L566 473 L594 475" stroke="#d4c6b0" stroke-width="1.15"/>
<path d="M81 156 L104 165 L126 167 L404 172 L432 165 L563 109 L588 101 L615 100 L672 111" stroke="#d4c6b0" stroke-width="1.15"/>
<path d="M477 608 L493 603" stroke="#d4c6b0" stroke-width="1.15"/>
<path d="M367 381 L363 392 L361 431 L339 460 L334 472" stroke="#d4c6b0" stroke-width="1.15"/>
<path d="M508 539 L517 548 L528 576 L535 587 L587 611 L625 632 L640 649 L650 676" stroke="#d4c6b0" stroke-width="1.15"/>
<path d="M611 730 L615 740 L615 773" stroke="#d4c6b0" stroke-width="1.15"/>
<path d="M528 499 L550 511 L576 516" stroke="#d4c6b0" stroke-width="1.15"/>
<path d="M493 642 L477 608 L475 595 L478 579 L493 553" stroke="#d4c6b0" stroke-width="1.15"/>
<path d="M2 240 L21 243 L46 257 L70 287 L79 315 L103 340" stroke="#d4c6b0" stroke-width="1.15"/>
<path d="M507 657 L524 638" stroke="#d4c6b0" stroke-width="1.15"/>
<path d="M504 688 L524 668" stroke="#d4c6b0" stroke-width="1.15"/>
<path d="M756 372 L753 389" stroke="#d4c6b0" stroke-width="1.15"/>
<path d="M638 451 L676 435" stroke="#d4c6b0" stroke-width="1.15"/>
<path d="M556 772 L582 768 L615 773" stroke="#d4c6b0" stroke-width="1.15"/>
<path d="M493 642 L516 663 L580 702" stroke="#d4c6b0" stroke-width="1.15"/>
<path d="M351 521 L356 521 L357 518 L352 515 L347 527 L352 541 L357 546 L372 552 L391 554 L476 546 L493 553" stroke="#d4c6b0" stroke-width="1.15"/>
<path d="M552 685 L574 654" stroke="#d4c6b0" stroke-width="1.15"/>
<path d="M444 648 L441 639 L434 575 L437 549 L434 499 L426 487 L401 468" stroke="#d4c6b0" stroke-width="1.15"/>
<path d="M63 751 L53 765 L44 766 L4 740 L4 734 L-3 729" stroke="#d4c6b0" stroke-width="1.15"/>
<path d="M677 644 L674 625" stroke="#d4c6b0" stroke-width="1.15"/>
<path d="M405 369 L409 404" stroke="#d4c6b0" stroke-width="1.15"/>
<path d="M436 517 L471 513" stroke="#d4c6b0" stroke-width="1.15"/>
<path d="M738 745 L738 728" stroke="#d4c6b0" stroke-width="1.15"/>
<path d="M738 505 L729 477 L730 456" stroke="#d4c6b0" stroke-width="1.15"/>
<path d="M590 421 L617 405 L645 403" stroke="#d4c6b0" stroke-width="1.15"/>
<path d="M444 374 L438 369 L418 367 L379 374 L367 381" stroke="#d4c6b0" stroke-width="1.15"/>
<path d="M645 403 L647 388 L652 378 L661 373 L679 369 L787 374 L810 379 L837 391" stroke="#d4c6b0" stroke-width="1.15"/>
<path d="M77 409 L62 397 L50 382 L24 303 L8 273 L-2 218 L-58 112 L-72 -1 L-68 -27" stroke="#d4c6b0" stroke-width="1.15"/>
<path d="M563 722 L575 728 L611 730" stroke="#d4c6b0" stroke-width="1.15"/>
<path d="M696 370 L699 397 L708 408 L719 415" stroke="#d4c6b0" stroke-width="1.15"/>
<path d="M98 795 L79 775 L55 740 L14 668" stroke="#d4c6b0" stroke-width="1.15"/>
<path d="M792 625 L753 580 L721 556 L705 506 L682 456 L672 420 L657 407 L645 403" stroke="#d4c6b0" stroke-width="1.15"/>
<path d="M662 1021 L660 1006 L664 994 L684 969 L691 952 L693 779 L699 765 L711 752 L723 747 L780 745 L842 727 L855 717" stroke="#d4c6b0" stroke-width="1.15"/>
<path d="M711 752 L700 738 L692 733" stroke="#d4c6b0" stroke-width="1.15"/>
<path d="M424 672 L420 672 L418 676 L424 677 L428 664 L444 648" stroke="#d4c6b0" stroke-width="1.15"/>
<path d="M117 389 L124 372 L138 365 L185 376 L188 372 L185 369 L182 374" stroke="#d4c6b0" stroke-width="1.15"/>
<path d="M62 522 L73 489 L78 459 L79 448 L74 424 L77 409" stroke="#d4c6b0" stroke-width="1.15"/>
<path d="M49 715 L68 736" stroke="#d4c6b0" stroke-width="1.15"/>
<path d="M554 742 L514 728 L486 730" stroke="#d4c6b0" stroke-width="1.15"/>
<path d="M598 431 L586 417 L579 402 L577 388 L582 374 L562 330 L567 320 L591 315" stroke="#d4c6b0" stroke-width="1.15"/>
<path d="M117 389 L125 443" stroke="#d4c6b0" stroke-width="1.15"/>
<path d="M125 443 L130 446 L226 445 L248 433 L260 415" stroke="#d4c6b0" stroke-width="1.15"/>
<path d="M3 380 L4 369 L9 365 L44 362" stroke="#d4c6b0" stroke-width="1.15"/>
<path d="M77 409 L94 393 L117 389" stroke="#d4c6b0" stroke-width="1.15"/>
<path d="M26 419 L37 403 L55 389" stroke="#d4c6b0" stroke-width="1.15"/>
<path d="M233 477 L233 482 L237 482 L238 478 L225 468 L222 445" stroke="#d4c6b0" stroke-width="1.15"/>
<path d="M148 826 L164 810 L176 783 L176 761 L173 752 L198 738" stroke="#d4c6b0" stroke-width="1.15"/>
<path d="M348 531 L328 528 L283 531 L280 537 L286 551 L287 561" stroke="#d4c6b0" stroke-width="1.15"/>
<path d="M126 167 L125 38" stroke="#d4c6b0" stroke-width="1.15"/>
<path d="M184 446 L191 441 L196 446" stroke="#d4c6b0" stroke-width="1.15"/>
<path d="M672 111 L693 113 L850 113 L874 119 L896 133" stroke="#d4c6b0" stroke-width="1.15"/>
<path d="M103 340 L109 362" stroke="#d4c6b0" stroke-width="1.15"/>
<path d="M279 426 L244 405 L236 419 L234 429" stroke="#d4c6b0" stroke-width="1.15"/>
<path d="M125 549 L124 473 L127 445" stroke="#d4c6b0" stroke-width="1.15"/>
<path d="M42 693 L85 693 L100 667 L116 658 L124 625 L125 549" stroke="#d4c6b0" stroke-width="1.15"/>
<path d="M615 773 L647 772 L654 753 L652 749 L647 753 L651 757" stroke="#d4c6b0" stroke-width="1.15"/>
<path d="M49 715 L44 697" stroke="#d4c6b0" stroke-width="1.15"/>
<path d="M86 398 L87 390 L95 393" stroke="#d4c6b0" stroke-width="1.15"/>
<path d="M56 456 L78 459" stroke="#d4c6b0" stroke-width="1.15"/>
<path d="M580 702 L563 722 L554 747 L564 835 L564 870 L573 905 L608 965 L615 1003" stroke="#c0ad90" stroke-width="1.75"/>
<path d="M580 702 L598 690 L662 673 L730 670 L752 658 L775 636 L792 625 L851 595 L870 590" stroke="#c0ad90" stroke-width="1.75"/>
<path d="M874 570 L894 438" stroke="#b09a78" stroke-width="2.25"/>
<path d="M897 347 L883 316 L861 293 L741 204 L708 174 L688 149 L672 111" stroke="#b09a78" stroke-width="2.25"/>
<path d="M672 111 L669 15" stroke="#b09a78" stroke-width="2.25"/>
<path d="M320 1020 L283 966 L86 760 L-34 572 L-96 504" stroke="#b09a78" stroke-width="2.25"/>
<path d="M115 27 L229 59 L260 64 L293 62 L313 57 L350 39" stroke="#9c8464" stroke-width="2.9"/>
<path d="M399 9 L329 44 L292 55 L274 57 L231 53 L146 31" stroke="#9c8464" stroke-width="2.9"/>
<path d="M350 39 L401 14" stroke="#9c8464" stroke-width="2.9"/>
</g>
<rect x="0.5" y="0.5" width="799" height="859" fill="none" stroke="#d9ccb8" stroke-width="1"/>
<g class="pin"><circle cx="400.0" cy="430.0" r="13" fill="#1e4636" stroke="#f7f1e6" stroke-width="2"/><text x="400.0" y="430.0" text-anchor="middle" dominant-baseline="central" fill="#f7f1e6" font-family="Georgia, Palatino, serif" font-size="14" font-weight="700">1</text></g>
</svg>
