<svg xmlns="http://www.w3.org/2000/svg" viewBox="0 0 200 190" width="1200" height="1140">
  <path fill="#f7f1e6" stroke="#c6a15a" stroke-width="2.4" stroke-linejoin="round" d="M30 48 C62 22 118 16 156 40 C182 58 190 96 172 130 C152 166 108 180 68 168 C28 156 12 120 18 84 C22 60 20 58 30 48 Z"/>
  <g transform="translate(102 124)">
    <path fill="#c6a15a" d="M0,0 C-4.6,-14 -13.6,-24 -13.6,-36.2 C-13.6,-45.6 -8,-52 0,-52 C8,-52 13.6,-45.6 13.6,-36.2 C13.6,-24 4.6,-14 0,0 Z"/>
    <circle cx="0" cy="-36.2" r="5" fill="#1e4636"/>
  </g>
</svg>
